# xmcd
#
# Track frame offsets: 
#        150
#        17472
#        33677
#        47255
#        61705
#        79145
#        96520
#        117185
#        132460
#        155347
#        177837
#        197197
#        216907
#        234845
#
# Disc length: 3413 seconds
#
# Revision: 3
# Processed by: cddbd v1.5.2PL0 Copyright (c) Steve Scherf et al.
# Submitted via: ExactAudioCopyFreeDBPlugin 1.0
#
DISCID=b40d530e
DTITLE=Bruce Carroll - For The Record
DYEAR=1997
DGENRE=Christian
TTITLE0=Bought And Paid For
TTITLE1=Driving Nails
TTITLE2=Fight To Be Weak
TTITLE3=Above And Beyond
TTITLE4=The Great Exchange
TTITLE5=Who Will Be Jesus
TTITLE6=Living In The Pages
TTITLE7=Breaking The Law of Love
TTITLE8=Sometimes Miracles Hide
TTITLE9=I'm Still Here
TTITLE10=I Know Where I Stand
TTITLE11=Good Life
TTITLE12=Walk On
TTITLE13=Shadow And Light
EXTD=
EXTT0=
EXTT1=
EXTT2=
EXTT3=
EXTT4=
EXTT5=
EXTT6=
EXTT7=
EXTT8=
EXTT9=
EXTT10=
EXTT11=
EXTT12=
EXTT13=
PLAYORDER=
